<?xml version="1.0" encoding="UTF-8"?>
<svg width="200px" height="200px" viewBox="0 0 200 200" version="1.1" xmlns="http://www.w3.org/2000/svg" xmlns:xlink="http://www.w3.org/1999/xlink">
    <title>Logo</title>
    <g id="black" stroke="none" stroke-width="1" fill="none" fill-rule="evenodd">
        <g id="border" stroke="#000000" stroke-width="5">
            <path d="M26.3095238,26.3095238 L26.3095238,173.690476 L173.690476,173.690476 L173.690476,26.3095238 L26.3095238,26.3095238 Z" id="矩形" transform="translate(100.000000, 100.000000) rotate(22.000000) translate(-100.000000, -100.000000) "></path>
            <path d="M27.0770294,27.0770294 L27.0770294,174.457982 L174.457982,174.457982 L174.457982,27.0770294 L27.0770294,27.0770294 Z" id="矩形" transform="translate(100.767506, 100.767506) rotate(-22.000000) translate(-100.767506, -100.767506) "></path>
        </g>
        <g id="spider" transform="translate(43.000000, 66.000000)" stroke="#000000" stroke-width="5">
            <g id="Body">
                <path d="M16.625,2.4 L2.375,26.4 L16.625,2.4 Z M26.125,14.4 L16.625,2.4 L26.125,14.4 Z M2.375,26.4 L0,26.4 L2.375,26.4 Z" id="left-1" stroke-linecap="round" stroke-linejoin="round"></path>
                <path d="M102.125,2.4 L87.875,26.4 L102.125,2.4 Z M111.625,14.4 L102.125,2.4 L111.625,14.4 Z M87.875,26.4 L85.5,26.4 L87.875,26.4 Z" id="right-1" stroke-linecap="round" stroke-linejoin="round" transform="translate(99.750000, 14.400000) scale(-1, 1) translate(-99.750000, -14.400000) "></path>
                <path d="M16.625,16.8 L7.125,40.8 L16.625,16.8 Z M21.375,21.6 L16.625,16.8 L21.375,21.6 Z M7.125,40.8 L4.75,40.8 L7.125,40.8 Z" id="left-2" stroke-linecap="round" stroke-linejoin="round"></path>
                <path d="M16.625,45.6 L11.875,55.2 L16.625,45.6 Z M21.375,45.6 L16.625,45.6 L21.375,45.6 Z M11.875,55.2 L9.5,55.2 L11.875,55.2 Z" id="left-3" stroke-linecap="round" stroke-linejoin="round"></path>
                <path d="M30.875,64.8 L45.125,69.6 L30.875,64.8 Z M35.625,60 L30.875,64.8 L35.625,60 Z" id="left-4" stroke-linecap="round" stroke-linejoin="round"></path>
                <path d="M68.875,64.8 L83.125,69.6 L68.875,64.8 Z M73.625,60 L68.875,64.8 L73.625,60 Z" id="right-4" stroke-linecap="round" stroke-linejoin="round" transform="translate(76.000000, 64.800000) scale(-1, 1) translate(-76.000000, -64.800000) "></path>
                <path d="M102.125,45.6 L97.375,55.2 L102.125,45.6 Z M106.875,45.6 L102.125,45.6 L106.875,45.6 Z M97.375,55.2 L95,55.2 L97.375,55.2 Z" id="right-3" stroke-linecap="round" stroke-linejoin="round" transform="translate(99.750000, 50.400000) scale(-1, 1) translate(-99.750000, -50.400000) "></path>
                <path d="M106.875,16.8 L97.375,40.8 L106.875,16.8 Z M111.625,21.6 L106.875,16.8 L111.625,21.6 Z M97.375,40.8 L95,40.8 L97.375,40.8 Z" id="right-2" stroke-linecap="round" stroke-linejoin="round" transform="translate(102.125000, 28.800000) scale(-1, 1) translate(-102.125000, -28.800000) "></path>
                <ellipse id="body" cx="57" cy="33.6" rx="38" ry="28.8"></ellipse>
            </g>
            <g id="Head" transform="translate(29.000000, 14.000000)">
                <ellipse id="head" cx="28.5" cy="24" rx="28.5" ry="24"></ellipse>
                <ellipse id="eye" cx="45.125" cy="24" rx="2.375" ry="4.8"></ellipse>
                <ellipse id="eye" cx="11.875" cy="24" rx="2.375" ry="4.8"></ellipse>
            </g>
        </g>
    </g>
</svg>